<svg width="2840" height="500" viewBox="0 0 2840 500" fill="none" xmlns="http://www.w3.org/2000/svg">
<g clip-path="url(#clip0_1374_29)">
<path d="M775.76 366.92C758.907 366.92 743.333 364.147 729.04 358.6C714.747 352.84 702.373 344.84 691.92 334.6C681.467 324.36 673.253 312.307 667.28 298.44C661.52 284.573 658.64 269.427 658.64 253C658.64 236.573 661.52 221.427 667.28 207.56C673.253 193.693 681.467 181.64 691.92 171.4C702.587 161.16 715.067 153.267 729.36 147.72C743.653 141.96 759.227 139.08 776.08 139.08C792.293 139.08 807.547 141.853 821.84 147.4C836.133 152.733 848.187 160.84 858 171.72L842.96 186.76C833.787 177.373 823.653 170.653 812.56 166.6C801.467 162.333 789.52 160.2 776.72 160.2C763.28 160.2 750.8 162.547 739.28 167.24C727.76 171.72 717.733 178.227 709.2 186.76C700.667 195.08 693.947 204.893 689.04 216.2C684.347 227.293 682 239.56 682 253C682 266.44 684.347 278.813 689.04 290.12C693.947 301.213 700.667 311.027 709.2 319.56C717.733 327.88 727.76 334.387 739.28 339.08C750.8 343.56 763.28 345.8 776.72 345.8C789.52 345.8 801.467 343.667 812.56 339.4C823.653 335.133 833.787 328.307 842.96 318.92L858 333.96C848.187 344.84 836.133 353.053 821.84 358.6C807.547 364.147 792.187 366.92 775.76 366.92ZM961.46 366.6C945.247 366.6 930.633 362.973 917.62 355.72C904.82 348.253 894.687 338.12 887.22 325.32C879.753 312.307 876.02 297.48 876.02 280.84C876.02 263.987 879.753 249.16 887.22 236.36C894.687 223.56 904.82 213.533 917.62 206.28C930.42 199.027 945.033 195.4 961.46 195.4C978.1 195.4 992.82 199.027 1005.62 206.28C1018.63 213.533 1028.77 223.56 1036.02 236.36C1043.49 249.16 1047.22 263.987 1047.22 280.84C1047.22 297.48 1043.49 312.307 1036.02 325.32C1028.77 338.12 1018.63 348.253 1005.62 355.72C992.607 362.973 977.887 366.6 961.46 366.6ZM961.46 346.44C973.62 346.44 984.393 343.773 993.78 338.44C1003.17 332.893 1010.53 325.213 1015.86 315.4C1021.41 305.373 1024.18 293.853 1024.18 280.84C1024.18 267.613 1021.41 256.093 1015.86 246.28C1010.53 236.467 1003.17 228.893 993.78 223.56C984.393 218.013 973.727 215.24 961.78 215.24C949.833 215.24 939.167 218.013 929.78 223.56C920.393 228.893 912.927 236.467 907.38 246.28C901.833 256.093 899.06 267.613 899.06 280.84C899.06 293.853 901.833 305.373 907.38 315.4C912.927 325.213 920.393 332.893 929.78 338.44C939.167 343.773 949.727 346.44 961.46 346.44ZM1157.29 366.6C1141.29 366.6 1126.89 362.973 1114.09 355.72C1101.5 348.467 1091.58 338.44 1084.33 325.64C1077.07 312.627 1073.45 297.693 1073.45 280.84C1073.45 263.773 1077.07 248.84 1084.33 236.04C1091.58 223.24 1101.5 213.32 1114.09 206.28C1126.89 199.027 1141.29 195.4 1157.29 195.4C1172.01 195.4 1185.13 198.707 1196.65 205.32C1208.38 211.933 1217.66 221.64 1224.49 234.44C1231.53 247.027 1235.05 262.493 1235.05 280.84C1235.05 298.973 1231.63 314.44 1224.81 327.24C1217.98 340.04 1208.7 349.853 1196.97 356.68C1185.45 363.293 1172.22 366.6 1157.29 366.6ZM1158.89 346.44C1170.83 346.44 1181.5 343.773 1190.89 338.44C1200.49 332.893 1207.95 325.213 1213.29 315.4C1218.83 305.373 1221.61 293.853 1221.61 280.84C1221.61 267.613 1218.83 256.093 1213.29 246.28C1207.95 236.467 1200.49 228.893 1190.89 223.56C1181.5 218.013 1170.83 215.24 1158.89 215.24C1147.15 215.24 1136.59 218.013 1127.21 223.56C1117.82 228.893 1110.35 236.467 1104.81 246.28C1099.26 256.093 1096.49 267.613 1096.49 280.84C1096.49 293.853 1099.26 305.373 1104.81 315.4C1110.35 325.213 1117.82 332.893 1127.21 338.44C1136.59 343.773 1147.15 346.44 1158.89 346.44ZM1222.25 365V314.44L1224.49 280.52L1221.29 246.6V127.56H1244.01V365H1222.25ZM1375.44 366.6C1357.95 366.6 1342.59 362.973 1329.36 355.72C1316.13 348.253 1305.79 338.12 1298.32 325.32C1290.85 312.307 1287.12 297.48 1287.12 280.84C1287.12 264.2 1290.64 249.48 1297.68 236.68C1304.93 223.88 1314.75 213.853 1327.12 206.6C1339.71 199.133 1353.79 195.4 1369.36 195.4C1385.15 195.4 1399.12 199.027 1411.28 206.28C1423.65 213.32 1433.36 223.347 1440.4 236.36C1447.44 249.16 1450.96 263.987 1450.96 280.84C1450.96 281.907 1450.85 283.08 1450.64 284.36C1450.64 285.427 1450.64 286.6 1450.64 287.88H1304.4V270.92H1438.48L1429.52 277.64C1429.52 265.48 1426.85 254.707 1421.52 245.32C1416.4 235.72 1409.36 228.253 1400.4 222.92C1391.44 217.587 1381.09 214.92 1369.36 214.92C1357.84 214.92 1347.49 217.587 1338.32 222.92C1329.15 228.253 1322 235.72 1316.88 245.32C1311.76 254.92 1309.2 265.907 1309.2 278.28V281.8C1309.2 294.6 1311.97 305.907 1317.52 315.72C1323.28 325.32 1331.17 332.893 1341.2 338.44C1351.44 343.773 1363.07 346.44 1376.08 346.44C1386.32 346.44 1395.81 344.627 1404.56 341C1413.52 337.373 1421.2 331.827 1427.6 324.36L1440.4 339.08C1432.93 348.04 1423.55 354.867 1412.24 359.56C1401.15 364.253 1388.88 366.6 1375.44 366.6ZM1596.09 366.92C1579.23 366.92 1563.66 364.147 1549.37 358.6C1535.07 352.84 1522.7 344.84 1512.25 334.6C1501.79 324.36 1493.58 312.307 1487.61 298.44C1481.85 284.573 1478.97 269.427 1478.97 253C1478.97 236.573 1481.85 221.427 1487.61 207.56C1493.58 193.693 1501.79 181.64 1512.25 171.4C1522.91 161.16 1535.39 153.267 1549.69 147.72C1563.98 141.96 1579.55 139.08 1596.41 139.08C1612.62 139.08 1627.87 141.853 1642.17 147.4C1656.46 152.733 1668.51 160.84 1678.33 171.72L1663.29 186.76C1654.11 177.373 1643.98 170.653 1632.89 166.6C1621.79 162.333 1609.85 160.2 1597.05 160.2C1583.61 160.2 1571.13 162.547 1559.61 167.24C1548.09 171.72 1538.06 178.227 1529.53 186.76C1520.99 195.08 1514.27 204.893 1509.37 216.2C1504.67 227.293 1502.33 239.56 1502.33 253C1502.33 266.44 1504.67 278.813 1509.37 290.12C1514.27 301.213 1520.99 311.027 1529.53 319.56C1538.06 327.88 1548.09 334.387 1559.61 339.08C1571.13 343.56 1583.61 345.8 1597.05 345.8C1609.85 345.8 1621.79 343.667 1632.89 339.4C1643.98 335.133 1654.11 328.307 1663.29 318.92L1678.33 333.96C1668.51 344.84 1656.46 353.053 1642.17 358.6C1627.87 364.147 1612.51 366.92 1596.09 366.92ZM1720.81 365V197H1742.57V242.76L1740.33 234.76C1745.02 221.96 1752.91 212.253 1764.01 205.64C1775.1 198.813 1788.86 195.4 1805.29 195.4V217.48C1804.43 217.48 1803.58 217.48 1802.73 217.48C1801.87 217.267 1801.02 217.16 1800.17 217.16C1782.46 217.16 1768.59 222.6 1758.57 233.48C1748.54 244.147 1743.53 259.4 1743.53 279.24V365H1720.81ZM1936.32 365V327.88L1935.36 321.8V259.72C1935.36 245.427 1931.31 234.44 1923.2 226.76C1915.31 219.08 1903.47 215.24 1887.68 215.24C1876.8 215.24 1866.46 217.053 1856.64 220.68C1846.83 224.307 1838.51 229.107 1831.68 235.08L1821.44 218.12C1829.98 210.867 1840.22 205.32 1852.16 201.48C1864.11 197.427 1876.7 195.4 1889.92 195.4C1911.68 195.4 1928.43 200.84 1940.16 211.72C1952.11 222.387 1958.08 238.707 1958.08 260.68V365H1936.32ZM1878.4 366.6C1865.82 366.6 1854.83 364.573 1845.44 360.52C1836.27 356.253 1829.23 350.493 1824.32 343.24C1819.42 335.773 1816.96 327.24 1816.96 317.64C1816.96 308.893 1818.99 301 1823.04 293.96C1827.31 286.707 1834.14 280.947 1843.52 276.68C1853.12 272.2 1865.92 269.96 1881.92 269.96H1939.84V286.92H1882.56C1866.35 286.92 1855.04 289.8 1848.64 295.56C1842.46 301.32 1839.36 308.467 1839.36 317C1839.36 326.6 1843.1 334.28 1850.56 340.04C1858.03 345.8 1868.48 348.68 1881.92 348.68C1894.72 348.68 1905.71 345.8 1914.88 340.04C1924.27 334.067 1931.1 325.533 1935.36 314.44L1940.48 330.12C1936.22 341.213 1928.75 350.067 1918.08 356.68C1907.63 363.293 1894.4 366.6 1878.4 366.6ZM2020.43 365V175.88C2020.43 160.947 2024.81 148.893 2033.55 139.72C2042.3 130.547 2054.89 125.96 2071.31 125.96C2077.71 125.96 2083.9 126.813 2089.87 128.52C2095.85 130.227 2100.86 132.893 2104.91 136.52L2097.23 153.48C2094.03 150.707 2090.3 148.68 2086.03 147.4C2081.77 145.907 2077.18 145.16 2072.27 145.16C2062.67 145.16 2055.31 147.827 2050.19 153.16C2045.07 158.493 2042.51 166.387 2042.51 176.84V202.44L2043.15 213V365H2020.43ZM1990.35 215.88V197H2094.35V215.88H1990.35ZM2174.95 366.6C2159.16 366.6 2147 362.333 2138.47 353.8C2129.94 345.267 2125.67 333.213 2125.67 317.64V159.88H2148.39V316.36C2148.39 326.173 2150.84 333.747 2155.75 339.08C2160.87 344.413 2168.12 347.08 2177.51 347.08C2187.54 347.08 2195.86 344.2 2202.47 338.44L2210.47 354.76C2205.99 358.813 2200.55 361.8 2194.15 363.72C2187.96 365.64 2181.56 366.6 2174.95 366.6ZM2095.59 215.88V197H2199.59V215.88H2095.59ZM2314.05 366.6C2296.56 366.6 2281.2 362.973 2267.97 355.72C2254.75 348.253 2244.4 338.12 2236.93 325.32C2229.47 312.307 2225.73 297.48 2225.73 280.84C2225.73 264.2 2229.25 249.48 2236.29 236.68C2243.55 223.88 2253.36 213.853 2265.73 206.6C2278.32 199.133 2292.4 195.4 2307.97 195.4C2323.76 195.4 2337.73 199.027 2349.89 206.28C2362.27 213.32 2371.97 223.347 2379.01 236.36C2386.05 249.16 2389.57 263.987 2389.57 280.84C2389.57 281.907 2389.47 283.08 2389.25 284.36C2389.25 285.427 2389.25 286.6 2389.25 287.88H2243.01V270.92H2377.09L2368.13 277.64C2368.13 265.48 2365.47 254.707 2360.13 245.32C2355.01 235.72 2347.97 228.253 2339.01 222.92C2330.05 217.587 2319.71 214.92 2307.97 214.92C2296.45 214.92 2286.11 217.587 2276.93 222.92C2267.76 228.253 2260.61 235.72 2255.49 245.32C2250.37 254.92 2247.81 265.907 2247.81 278.28V281.8C2247.81 294.6 2250.59 305.907 2256.13 315.72C2261.89 325.32 2269.79 332.893 2279.81 338.44C2290.05 343.773 2301.68 346.44 2314.69 346.44C2324.93 346.44 2334.43 344.627 2343.17 341C2352.13 337.373 2359.81 331.827 2366.21 324.36L2379.01 339.08C2371.55 348.04 2362.16 354.867 2350.85 359.56C2339.76 364.253 2327.49 366.6 2314.05 366.6ZM2432.62 365V197H2454.38V242.76L2452.14 234.76C2456.83 221.96 2464.72 212.253 2475.82 205.64C2486.91 198.813 2500.67 195.4 2517.1 195.4V217.48C2516.24 217.48 2515.39 217.48 2514.54 217.48C2513.68 217.267 2512.83 217.16 2511.98 217.16C2494.27 217.16 2480.4 222.6 2470.38 233.48C2460.35 244.147 2455.34 259.4 2455.34 279.24V365H2432.62ZM2602.35 366.6C2588.48 366.6 2575.36 364.68 2562.99 360.84C2550.62 356.787 2540.91 351.773 2533.87 345.8L2544.11 327.88C2550.94 333 2559.68 337.48 2570.35 341.32C2581.02 344.947 2592.22 346.76 2603.95 346.76C2619.95 346.76 2631.47 344.307 2638.51 339.4C2645.55 334.28 2649.07 327.56 2649.07 319.24C2649.07 313.053 2647.04 308.253 2642.99 304.84C2639.15 301.213 2634.03 298.547 2627.63 296.84C2621.23 294.92 2614.08 293.32 2606.19 292.04C2598.3 290.76 2590.4 289.267 2582.51 287.56C2574.83 285.853 2567.79 283.4 2561.39 280.2C2554.99 276.787 2549.76 272.2 2545.71 266.44C2541.87 260.68 2539.95 253 2539.95 243.4C2539.95 234.227 2542.51 226.013 2547.63 218.76C2552.75 211.507 2560.22 205.853 2570.03 201.8C2580.06 197.533 2592.22 195.4 2606.51 195.4C2617.39 195.4 2628.27 196.893 2639.15 199.88C2650.03 202.653 2658.99 206.387 2666.03 211.08L2656.11 229.32C2648.64 224.2 2640.64 220.573 2632.11 218.44C2623.58 216.093 2615.04 214.92 2606.51 214.92C2591.36 214.92 2580.16 217.587 2572.91 222.92C2565.87 228.04 2562.35 234.653 2562.35 242.76C2562.35 249.16 2564.27 254.173 2568.11 257.8C2572.16 261.427 2577.39 264.307 2583.79 266.44C2590.4 268.36 2597.55 269.96 2605.23 271.24C2613.12 272.52 2620.91 274.12 2628.59 276.04C2636.48 277.747 2643.63 280.2 2650.03 283.4C2656.64 286.387 2661.87 290.76 2665.71 296.52C2669.76 302.067 2671.79 309.427 2671.79 318.6C2671.79 328.413 2669.02 336.947 2663.47 344.2C2658.14 351.24 2650.24 356.787 2639.79 360.84C2629.55 364.68 2617.07 366.6 2602.35 366.6Z" fill="#ECEEF2"/>
<g filter="url(#filter0_i_1374_29)">
<path d="M494.841 237.638L379.155 115.073C372.276 107.569 360.395 106.944 352.891 114.448C345.387 121.326 344.761 133.208 352.265 140.712L455.445 250.77L351.64 360.203C344.761 367.707 344.761 379.588 352.265 386.467C356.017 389.594 360.395 391.47 365.397 391.47C370.4 391.47 375.403 389.594 379.155 385.842L494.841 263.277C501.72 256.398 501.72 245.142 494.841 237.638Z" fill="#ECEEF2"/>
</g>
<g filter="url(#filter1_i_1374_29)">
<path d="M147.157 114.447C139.653 107.568 127.771 107.568 120.893 115.072L4.58086 237.637C-2.29779 245.141 -2.29779 256.397 4.58086 263.276L120.267 385.841C124.019 389.593 129.022 391.469 134.025 391.469C138.402 391.469 143.405 389.593 147.157 386.466C154.661 379.587 155.286 367.706 147.782 360.202L43.9768 250.769L147.782 141.336C154.661 133.832 154.661 121.951 147.157 114.447Z" fill="#ECEEF2"/>
</g>
<g filter="url(#filter2_i_1374_29)">
<path d="M280.351 51.9143C270.346 50.6636 260.341 57.5422 259.09 67.5476L204.061 427.739C202.81 437.744 209.689 447.749 219.694 449C220.945 449 221.57 449 222.821 449C232.201 449 239.705 442.121 241.581 433.367L296.61 73.1755C297.235 63.1702 290.357 53.7903 280.351 51.9143Z" fill="#ECEEF2"/>
</g>
</g>
<defs>
<filter id="filter0_i_1374_29" x="346.557" y="109.123" width="163.443" height="292.348" filterUnits="userSpaceOnUse" color-interpolation-filters="sRGB">
<feFlood flood-opacity="0" result="BackgroundImageFix"/>
<feBlend mode="normal" in="SourceGraphic" in2="BackgroundImageFix" result="shape"/>
<feColorMatrix in="SourceAlpha" type="matrix" values="0 0 0 0 0 0 0 0 0 0 0 0 0 0 0 0 0 0 127 0" result="hardAlpha"/>
<feOffset dx="10" dy="10"/>
<feGaussianBlur stdDeviation="5"/>
<feComposite in2="hardAlpha" operator="arithmetic" k2="-1" k3="1"/>
<feColorMatrix type="matrix" values="0 0 0 0 0.101961 0 0 0 0 0.12549 0 0 0 0 0.172549 0 0 0 0.1 0"/>
<feBlend mode="normal" in2="shape" result="effect1_innerShadow_1374_29"/>
</filter>
<filter id="filter1_i_1374_29" x="-0.578125" y="109.363" width="163.686" height="292.105" filterUnits="userSpaceOnUse" color-interpolation-filters="sRGB">
<feFlood flood-opacity="0" result="BackgroundImageFix"/>
<feBlend mode="normal" in="SourceGraphic" in2="BackgroundImageFix" result="shape"/>
<feColorMatrix in="SourceAlpha" type="matrix" values="0 0 0 0 0 0 0 0 0 0 0 0 0 0 0 0 0 0 127 0" result="hardAlpha"/>
<feOffset dx="10" dy="10"/>
<feGaussianBlur stdDeviation="5"/>
<feComposite in2="hardAlpha" operator="arithmetic" k2="-1" k3="1"/>
<feColorMatrix type="matrix" values="0 0 0 0 0.101961 0 0 0 0 0.12549 0 0 0 0 0.172549 0 0 0 0.1 0"/>
<feBlend mode="normal" in2="shape" result="effect1_innerShadow_1374_29"/>
</filter>
<filter id="filter2_i_1374_29" x="203.914" y="51.7676" width="102.734" height="407.232" filterUnits="userSpaceOnUse" color-interpolation-filters="sRGB">
<feFlood flood-opacity="0" result="BackgroundImageFix"/>
<feBlend mode="normal" in="SourceGraphic" in2="BackgroundImageFix" result="shape"/>
<feColorMatrix in="SourceAlpha" type="matrix" values="0 0 0 0 0 0 0 0 0 0 0 0 0 0 0 0 0 0 127 0" result="hardAlpha"/>
<feOffset dx="10" dy="10"/>
<feGaussianBlur stdDeviation="5"/>
<feComposite in2="hardAlpha" operator="arithmetic" k2="-1" k3="1"/>
<feColorMatrix type="matrix" values="0 0 0 0 0.101961 0 0 0 0 0.12549 0 0 0 0 0.172549 0 0 0 0.1 0"/>
<feBlend mode="normal" in2="shape" result="effect1_innerShadow_1374_29"/>
</filter>
<clipPath id="clip0_1374_29">
<rect width="2840" height="500" fill="white"/>
</clipPath>
</defs>
</svg>
